<svg xmlns="http://www.w3.org/2000/svg" x="0" y="0" width="100" height="92.14127099669211" filtersec="colorsb7269444821" class="image-svg-svg primary" style="overflow: visible;"><svg xmlns="http://www.w3.org/2000/svg" viewBox="-9.670483001617686e-14 -0.0028448104858398438 108.5300064086914 100.0006103515625"><g fill-rule="evenodd"><path d="M78.25 99.64c4.85 1.53 7.8-2.18 8.51-4.84 2.69-10.11-15.4-28-15.4-45.59s18-34 15-43.66c-.76-2.45-3.51-6.88-8.1-5.17a54.19 54.19 0 0 0 0 99.26z" fill="#5b69f2" opacity=".8"/><path d="M30.28 99.64c-4.85 1.53-7.8-2.18-8.51-4.84-2.69-10.11 15.4-28 15.4-45.59s-18-34-15-43.66c.77-2.45 3.52-6.88 8.11-5.17a54.2 54.2 0 0 1 0 99.26z" fill="#75b5c1" opacity=".8"/><path d="M13.61 37.71A13.61 13.61 0 1 1 0 51.32a13.61 13.61 0 0 1 13.61-13.61z" fill="#5b69f2"/><path d="M94.92 37.71a13.61 13.61 0 1 1-13.61 13.61 13.62 13.62 0 0 1 13.61-13.61z" fill="#75b5c1"/></g></svg></svg>